<svg width="1280" height="720" viewBox="0 0 1280 720" fill="none" xmlns="http://www.w3.org/2000/svg">
<g clip-path="url(#clip0_20_7866)">
<circle cx="1082.72" cy="505.722" r="0.721569" fill="white" fill-opacity="0.5"/>
<circle cx="594.31" cy="110.31" r="1.30956" fill="white" fill-opacity="0.4"/>
<circle cx="36.7951" cy="33.7951" r="0.795125" fill="white" fill-opacity="0.3"/>
<circle cx="1278.98" cy="293.983" r="0.982932" fill="white" fill-opacity="0.6"/>
<circle cx="953.58" cy="327.58" r="0.579905" fill="white" fill-opacity="0.4"/>
<circle cx="510.902" cy="100.902" r="0.901632" fill="white" fill-opacity="0.5"/>
<circle cx="420.077" cy="588.077" r="1.07743" fill="white" fill-opacity="0.5"/>
<circle cx="559.512" cy="337.512" r="0.512024" fill="white" fill-opacity="0.4"/>
<circle cx="438.543" cy="12.543" r="0.542972" fill="white" fill-opacity="0.4"/>
<circle cx="134.403" cy="160.403" r="1.40287" fill="white" fill-opacity="0.4"/>
<circle cx="121.047" cy="12.0468" r="1.04684" fill="white" fill-opacity="0.6"/>
<circle cx="120.706" cy="32.7061" r="0.706078" fill="white" fill-opacity="0.4"/>
<circle cx="652.929" cy="398.929" r="0.928877" fill="white" fill-opacity="0.6"/>
<circle cx="1246.41" cy="293.408" r="1.40845" fill="white" fill-opacity="0.4"/>
<circle cx="971.301" cy="39.3007" r="1.3007" fill="white" fill-opacity="0.4"/>
<circle cx="1155.66" cy="488.657" r="0.656572" fill="white" fill-opacity="0.4"/>
<circle cx="1260.95" cy="297.95" r="0.949726" fill="white" fill-opacity="0.5"/>
<circle cx="504.098" cy="418.098" r="1.09808" fill="white" fill-opacity="0.5"/>
<circle cx="789.512" cy="125.512" r="0.51157" fill="white" fill-opacity="0.3"/>
<circle cx="85.8211" cy="636.821" r="0.821096" fill="white" fill-opacity="0.4"/>
<circle cx="628.051" cy="100.051" r="1.05074" fill="white" fill-opacity="0.5"/>
<circle cx="1209.45" cy="229.453" r="1.45279" fill="white" fill-opacity="0.4"/>
<circle cx="101.651" cy="578.651" r="0.651452" fill="white" fill-opacity="0.3"/>
<circle cx="901.691" cy="9.69123" r="0.691233" fill="white" fill-opacity="0.4"/>
<circle cx="1192.42" cy="700.416" r="1.41563" fill="white" fill-opacity="0.4"/>
<circle cx="29.5719" cy="80.5719" r="0.571898" fill="white" fill-opacity="0.3"/>
<circle cx="737.927" cy="703.927" r="0.926807" fill="white" fill-opacity="0.4"/>
<circle cx="798.587" cy="407.587" r="0.587123" fill="white" fill-opacity="0.3"/>
<circle cx="1235.67" cy="418.666" r="0.666131" fill="white" fill-opacity="0.5"/>
<circle cx="186.114" cy="263.114" r="1.11404" fill="white" fill-opacity="0.5"/>
<circle cx="694.497" cy="615.497" r="1.49753" fill="white" fill-opacity="0.3"/>
<circle cx="264.565" cy="699.565" r="0.565251" fill="white" fill-opacity="0.5"/>
<circle cx="104.967" cy="671.967" r="0.967017" fill="white" fill-opacity="0.3"/>
<circle cx="248.746" cy="313.746" r="0.74592" fill="white" fill-opacity="0.3"/>
<circle cx="815.086" cy="520.086" r="1.08594" fill="white" fill-opacity="0.6"/>
<circle cx="527.246" cy="46.2457" r="1.24574" fill="white" fill-opacity="0.4"/>
<circle cx="459.932" cy="595.932" r="0.931719" fill="white" fill-opacity="0.5"/>
<circle cx="719.142" cy="690.142" r="1.14241" fill="white" fill-opacity="0.4"/>
<circle cx="199.065" cy="28.0646" r="1.06462" fill="white" fill-opacity="0.6"/>
<circle cx="512.228" cy="178.228" r="1.22794" fill="white" fill-opacity="0.6"/>
<circle cx="50.1908" cy="481.191" r="1.1908" fill="white" fill-opacity="0.3"/>
<circle cx="894.653" cy="639.653" r="0.653411" fill="white" fill-opacity="0.5"/>
<circle cx="1.56562" cy="508.566" r="0.565617" fill="white" fill-opacity="0.5"/>
<circle cx="397.818" cy="632.818" r="0.817903" fill="white" fill-opacity="0.5"/>
<circle cx="884.025" cy="604.025" r="1.02538" fill="white" fill-opacity="0.6"/>
<circle cx="35.9751" cy="109.975" r="0.975063" fill="white" fill-opacity="0.6"/>
<circle cx="377.849" cy="625.849" r="0.849156" fill="white" fill-opacity="0.4"/>
<circle cx="190.789" cy="464.789" r="0.789155" fill="white" fill-opacity="0.5"/>
<circle cx="194.077" cy="1.07704" r="1.07704" fill="white" fill-opacity="0.5"/>
<circle cx="1278.31" cy="671.309" r="1.30899" fill="white" fill-opacity="0.5"/>
<circle cx="70.9936" cy="401.994" r="0.993612" fill="white" fill-opacity="0.5"/>
<circle cx="855.555" cy="104.555" r="0.555027" fill="white" fill-opacity="0.5"/>
<circle cx="911.413" cy="636.413" r="1.41279" fill="white" fill-opacity="0.3"/>
<circle cx="651.411" cy="356.411" r="1.41112" fill="white" fill-opacity="0.4"/>
<circle cx="332.996" cy="384.996" r="0.996351" fill="white" fill-opacity="0.5"/>
<circle cx="232.449" cy="407.449" r="1.44877" fill="white" fill-opacity="0.6"/>
<circle cx="590.54" cy="460.54" r="0.53979" fill="white" fill-opacity="0.4"/>
<circle cx="405.144" cy="370.144" r="1.14365" fill="white" fill-opacity="0.5"/>
<circle cx="287.396" cy="333.396" r="1.39584" fill="white" fill-opacity="0.4"/>
<circle cx="854.291" cy="214.291" r="1.29071" fill="white" fill-opacity="0.4"/>
<circle cx="523.137" cy="703.137" r="1.13734" fill="white" fill-opacity="0.4"/>
<circle cx="1186.47" cy="596.474" r="1.47382" fill="white" fill-opacity="0.3"/>
<circle cx="153.091" cy="53.0908" r="1.09084" fill="white" fill-opacity="0.4"/>
<circle cx="13.0196" cy="5.01963" r="1.01963" fill="white" fill-opacity="0.5"/>
<circle cx="998.775" cy="631.775" r="0.775474" fill="white" fill-opacity="0.4"/>
<circle cx="1084.97" cy="86.9691" r="0.96908" fill="white" fill-opacity="0.3"/>
<circle cx="675.531" cy="424.531" r="0.530995" fill="white" fill-opacity="0.4"/>
<circle cx="896.259" cy="275.259" r="1.25939" fill="white" fill-opacity="0.6"/>
<circle cx="137.888" cy="58.8883" r="0.888339" fill="white" fill-opacity="0.4"/>
<circle cx="487.66" cy="435.66" r="0.659733" fill="white" fill-opacity="0.5"/>
<circle cx="1030.71" cy="561.708" r="0.707734" fill="white" fill-opacity="0.4"/>
<circle cx="667.53" cy="263.53" r="0.529695" fill="white" fill-opacity="0.4"/>
<circle cx="749.986" cy="709.986" r="0.985777" fill="white" fill-opacity="0.3"/>
<circle cx="1251.69" cy="199.686" r="0.686329" fill="white" fill-opacity="0.5"/>
<circle cx="1012.66" cy="317.662" r="0.662446" fill="white" fill-opacity="0.5"/>
<circle cx="809.3" cy="179.3" r="1.30008" fill="white" fill-opacity="0.5"/>
<circle cx="1116.27" cy="368.266" r="1.26628" fill="white" fill-opacity="0.6"/>
<circle cx="560.246" cy="711.246" r="1.24608" fill="white" fill-opacity="0.5"/>
<circle cx="1152.64" cy="336.643" r="0.643146" fill="white" fill-opacity="0.6"/>
<circle cx="1023.83" cy="341.833" r="0.833229" fill="white" fill-opacity="0.5"/>
<circle cx="1188.73" cy="626.726" r="0.725934" fill="white" fill-opacity="0.5"/>
<circle cx="666.714" cy="514.714" r="0.714207" fill="white" fill-opacity="0.4"/>
<circle cx="683.188" cy="146.188" r="1.1879" fill="white" fill-opacity="0.6"/>
<circle cx="1280.44" cy="182.438" r="1.43822" fill="white" fill-opacity="0.5"/>
<circle cx="655.038" cy="550.038" r="1.03778" fill="white" fill-opacity="0.3"/>
<circle cx="107.694" cy="459.694" r="0.69358" fill="white" fill-opacity="0.5"/>
<circle cx="1137.69" cy="272.688" r="0.688204" fill="white" fill-opacity="0.4"/>
<circle cx="599.202" cy="705.202" r="1.20162" fill="white" fill-opacity="0.6"/>
<circle cx="1043.98" cy="199.983" r="0.983312" fill="white" fill-opacity="0.4"/>
<circle cx="398.92" cy="279.92" r="0.919728" fill="white" fill-opacity="0.4"/>
<circle cx="965.299" cy="119.299" r="1.29864" fill="white" fill-opacity="0.4"/>
<circle cx="678.309" cy="298.309" r="1.30947" fill="white" fill-opacity="0.5"/>
<circle cx="1154.89" cy="33.893" r="0.892985" fill="white" fill-opacity="0.5"/>
<circle cx="852.04" cy="407.04" r="1.03956" fill="white" fill-opacity="0.6"/>
<circle cx="700.968" cy="502.968" r="0.968015" fill="white" fill-opacity="0.4"/>
<circle cx="683.052" cy="38.052" r="1.05197" fill="white" fill-opacity="0.4"/>
<circle cx="894.4" cy="486.4" r="1.3999" fill="white" fill-opacity="0.5"/>
<circle cx="463.031" cy="526.031" r="1.03101" fill="white" fill-opacity="0.3"/>
<circle cx="923.452" cy="594.452" r="1.45232" fill="white" fill-opacity="0.5"/>
<circle cx="1132.83" cy="372.828" r="0.828478" fill="white" fill-opacity="0.4"/>
<circle cx="1245.21" cy="229.212" r="1.212" fill="white" fill-opacity="0.6"/>
<circle cx="592.594" cy="13.5942" r="0.594223" fill="white" fill-opacity="0.4"/>
<circle cx="1071.64" cy="317.644" r="0.644308" fill="white" fill-opacity="0.5"/>
<circle cx="1182.76" cy="12.7595" r="0.759496" fill="white" fill-opacity="0.4"/>
<circle cx="939.937" cy="679.937" r="0.936931" fill="white" fill-opacity="0.3"/>
<circle cx="511.546" cy="87.5458" r="0.545794" fill="white" fill-opacity="0.6"/>
<circle cx="485.277" cy="366.277" r="1.27653" fill="white" fill-opacity="0.3"/>
<circle cx="698.362" cy="596.362" r="1.36234" fill="white" fill-opacity="0.3"/>
<circle cx="194.387" cy="88.3866" r="1.3866" fill="white" fill-opacity="0.5"/>
<circle cx="97.5088" cy="13.5088" r="0.508758" fill="white" fill-opacity="0.5"/>
<circle cx="1078.19" cy="133.192" r="1.19171" fill="white" fill-opacity="0.3"/>
<circle cx="943.455" cy="397.455" r="1.45515" fill="white" fill-opacity="0.6"/>
<circle cx="430.511" cy="480.511" r="0.511283" fill="white" fill-opacity="0.6"/>
<circle cx="1085.82" cy="623.817" r="0.817092" fill="white" fill-opacity="0.6"/>
<circle cx="983.987" cy="346.987" r="0.987312" fill="white" fill-opacity="0.3"/>
<circle cx="901.638" cy="422.638" r="0.637699" fill="white" fill-opacity="0.4"/>
<circle cx="205.611" cy="358.611" r="0.610606" fill="white" fill-opacity="0.5"/>
<circle cx="990.91" cy="2.90978" r="0.909785" fill="white" fill-opacity="0.6"/>
<circle cx="1171.33" cy="437.327" r="1.32674" fill="white" fill-opacity="0.6"/>
<circle cx="621.102" cy="428.103" r="1.1025" fill="white" fill-opacity="0.6"/>
<circle cx="295.759" cy="405.759" r="0.758915" fill="white" fill-opacity="0.5"/>
<circle cx="614.356" cy="78.3562" r="1.35621" fill="white" fill-opacity="0.6"/>
<circle cx="171.135" cy="160.135" r="1.13476" fill="white" fill-opacity="0.4"/>
<circle cx="749.843" cy="231.843" r="0.842627" fill="white" fill-opacity="0.6"/>
<circle cx="864.484" cy="18.4843" r="1.48426" fill="white" fill-opacity="0.5"/>
<circle cx="986.38" cy="580.38" r="1.37962" fill="white" fill-opacity="0.5"/>
<circle cx="717.82" cy="27.8195" r="0.819535" fill="white" fill-opacity="0.4"/>
<circle cx="619.281" cy="364.281" r="1.28088" fill="white" fill-opacity="0.5"/>
<circle cx="886.105" cy="292.105" r="1.10499" fill="white" fill-opacity="0.5"/>
<circle cx="616.725" cy="527.725" r="0.725478" fill="white" fill-opacity="0.5"/>
<circle cx="59.4012" cy="165.401" r="1.40124" fill="white" fill-opacity="0.5"/>
<circle cx="75.6785" cy="457.679" r="0.678538" fill="white" fill-opacity="0.4"/>
<circle cx="294.438" cy="138.438" r="1.43804" fill="white" fill-opacity="0.6"/>
<circle cx="372.436" cy="517.436" r="1.43622" fill="white" fill-opacity="0.5"/>
<circle cx="164.563" cy="378.563" r="0.563462" fill="white" fill-opacity="0.5"/>
<circle cx="703.135" cy="710.135" r="1.13498" fill="white" fill-opacity="0.5"/>
<circle cx="1242.14" cy="442.143" r="1.14302" fill="white" fill-opacity="0.4"/>
<circle cx="1010.42" cy="20.417" r="1.41697" fill="white" fill-opacity="0.5"/>
<circle cx="308.463" cy="637.463" r="1.46285" fill="white" fill-opacity="0.4"/>
<circle cx="704.741" cy="91.7412" r="0.741235" fill="white" fill-opacity="0.4"/>
<circle cx="257.546" cy="585.546" r="0.545891" fill="white" fill-opacity="0.3"/>
<circle cx="769.906" cy="9.90602" r="0.906024" fill="white" fill-opacity="0.5"/>
<circle cx="238.874" cy="15.8742" r="0.874189" fill="white" fill-opacity="0.6"/>
<circle cx="213.967" cy="123.967" r="0.966896" fill="white" fill-opacity="0.5"/>
<circle cx="17.1569" cy="472.157" r="1.15695" fill="white" fill-opacity="0.4"/>
<circle cx="652.166" cy="488.166" r="1.16624" fill="white" fill-opacity="0.4"/>
<circle cx="1029.09" cy="353.093" r="1.09302" fill="white" fill-opacity="0.4"/>
<circle cx="1055.11" cy="36.1106" r="1.11064" fill="white" fill-opacity="0.4"/>
<circle cx="869.163" cy="111.163" r="1.16282" fill="white" fill-opacity="0.5"/>
<circle cx="486.057" cy="163.057" r="1.05686" fill="white" fill-opacity="0.3"/>
<circle cx="642.332" cy="44.3322" r="1.33215" fill="white" fill-opacity="0.4"/>
<circle cx="202.542" cy="400.542" r="0.542307" fill="white" fill-opacity="0.3"/>
<circle cx="164.49" cy="676.49" r="1.48975" fill="white" fill-opacity="0.4"/>
<circle cx="222.434" cy="70.4336" r="1.43356" fill="white" fill-opacity="0.4"/>
<circle cx="1081.24" cy="295.241" r="1.24057" fill="white" fill-opacity="0.6"/>
<circle cx="1095.99" cy="607.988" r="0.988041" fill="white" fill-opacity="0.4"/>
<circle cx="28.6325" cy="189.632" r="0.632477" fill="white" fill-opacity="0.3"/>
<circle cx="373.326" cy="601.326" r="1.32552" fill="white" fill-opacity="0.4"/>
<circle cx="295.201" cy="363.201" r="1.20073" fill="white" fill-opacity="0.5"/>
<circle cx="928.629" cy="113.629" r="0.628571" fill="white" fill-opacity="0.5"/>
<circle cx="1086.34" cy="302.345" r="1.34483" fill="white" fill-opacity="0.5"/>
<circle cx="261.196" cy="481.196" r="1.19634" fill="white" fill-opacity="0.3"/>
<circle cx="987.286" cy="53.2856" r="1.28559" fill="white" fill-opacity="0.4"/>
<circle cx="464.009" cy="716.009" r="1.00944" fill="white" fill-opacity="0.4"/>
<circle cx="140.965" cy="423.965" r="0.965316" fill="white" fill-opacity="0.4"/>
<circle cx="479.296" cy="243.296" r="1.29601" fill="white" fill-opacity="0.4"/>
<circle cx="866.471" cy="364.471" r="1.47138" fill="white" fill-opacity="0.6"/>
<circle cx="517.592" cy="383.592" r="0.592491" fill="white" fill-opacity="0.5"/>
<circle cx="382.116" cy="541.116" r="1.11595" fill="white" fill-opacity="0.4"/>
<circle cx="45.3585" cy="430.359" r="1.35852" fill="white" fill-opacity="0.6"/>
<circle cx="325.319" cy="714.319" r="1.31904" fill="white" fill-opacity="0.3"/>
<circle cx="1111.33" cy="571.327" r="1.32713" fill="white" fill-opacity="0.3"/>
<circle cx="875.372" cy="710.372" r="1.3725" fill="white" fill-opacity="0.4"/>
<circle cx="39.7251" cy="393.725" r="0.725066" fill="white" fill-opacity="0.3"/>
<circle cx="30.4107" cy="203.411" r="1.41065" fill="white" fill-opacity="0.5"/>
<circle cx="83.2875" cy="261.287" r="1.28746" fill="white" fill-opacity="0.4"/>
<circle cx="620.117" cy="24.1165" r="1.11651" fill="white" fill-opacity="0.4"/>
<circle cx="489.087" cy="716.087" r="1.0867" fill="white" fill-opacity="0.5"/>
<circle cx="1148.43" cy="468.433" r="1.43286" fill="white" fill-opacity="0.5"/>
<circle cx="296.262" cy="383.262" r="1.26204" fill="white" fill-opacity="0.5"/>
<circle cx="1201.39" cy="18.3898" r="1.38978" fill="white" fill-opacity="0.5"/>
<circle cx="1148.61" cy="418.608" r="0.608475" fill="white" fill-opacity="0.4"/>
<circle cx="329.437" cy="248.437" r="1.43653" fill="white" fill-opacity="0.5"/>
<circle cx="558.968" cy="208.968" r="0.968216" fill="white" fill-opacity="0.4"/>
<circle cx="1082.48" cy="619.484" r="1.48413" fill="white" fill-opacity="0.4"/>
<circle cx="1268.61" cy="195.615" r="0.614922" fill="white" fill-opacity="0.6"/>
<circle cx="727.098" cy="600.098" r="1.09759" fill="white" fill-opacity="0.3"/>
<circle cx="515.421" cy="338.421" r="1.42081" fill="white" fill-opacity="0.4"/>
<circle cx="1227.69" cy="292.686" r="0.686356" fill="white" fill-opacity="0.4"/>
<circle cx="603.702" cy="282.702" r="0.701837" fill="white" fill-opacity="0.5"/>
<circle cx="1092.86" cy="207.861" r="0.861499" fill="white" fill-opacity="0.6"/>
<circle cx="1265.81" cy="430.809" r="0.808534" fill="white" fill-opacity="0.6"/>
<circle cx="128.238" cy="155.238" r="1.23849" fill="white" fill-opacity="0.5"/>
<circle cx="1186.39" cy="524.39" r="1.3896" fill="white" fill-opacity="0.4"/>
<circle cx="913.404" cy="230.404" r="1.40432" fill="white" fill-opacity="0.5"/>
<circle cx="1251.73" cy="552.73" r="0.730381" fill="white" fill-opacity="0.3"/>
<circle cx="1161.48" cy="334.478" r="1.47842" fill="white" fill-opacity="0.4"/>
<circle cx="363.287" cy="298.287" r="1.28693" fill="white" fill-opacity="0.5"/>
<circle cx="85.5326" cy="488.533" r="0.532559" fill="white" fill-opacity="0.4"/>
<circle cx="749.182" cy="313.182" r="1.18224" fill="white" fill-opacity="0.4"/>
<circle cx="1033.91" cy="540.912" r="0.912228" fill="white" fill-opacity="0.5"/>
<circle cx="1095.56" cy="37.5611" r="0.561114" fill="white" fill-opacity="0.3"/>
<circle cx="733.031" cy="570.031" r="1.03125" fill="white" fill-opacity="0.5"/>
<circle cx="521.307" cy="683.307" r="1.30689" fill="white" fill-opacity="0.6"/>
<circle cx="1021.71" cy="567.71" r="0.710457" fill="white" fill-opacity="0.5"/>
<circle cx="826.657" cy="99.6573" r="0.657347" fill="white" fill-opacity="0.5"/>
<circle cx="957.029" cy="532.029" r="1.02908" fill="white" fill-opacity="0.4"/>
<circle cx="925.471" cy="258.471" r="1.4712" fill="white" fill-opacity="0.3"/>
<circle cx="610.698" cy="345.698" r="0.697515" fill="white" fill-opacity="0.4"/>
<circle cx="353.661" cy="19.6614" r="0.661379" fill="white" fill-opacity="0.6"/>
<circle cx="1030.62" cy="410.619" r="0.618834" fill="white" fill-opacity="0.4"/>
<circle cx="554.653" cy="609.653" r="0.653168" fill="white" fill-opacity="0.5"/>
<circle cx="483.924" cy="488.924" r="0.924178" fill="white" fill-opacity="0.6"/>
<circle cx="280.514" cy="339.514" r="0.513638" fill="white" fill-opacity="0.5"/>
<circle cx="1128.66" cy="649.663" r="0.663035" fill="white" fill-opacity="0.3"/>
<circle cx="711.796" cy="399.796" r="0.796266" fill="white" fill-opacity="0.6"/>
<circle cx="348.419" cy="389.419" r="1.41916" fill="white" fill-opacity="0.6"/>
<circle cx="273.914" cy="236.914" r="0.913698" fill="white" fill-opacity="0.6"/>
<circle cx="862.666" cy="182.666" r="0.665768" fill="white" fill-opacity="0.6"/>
<circle cx="225.285" cy="387.285" r="1.28493" fill="white" fill-opacity="0.4"/>
<circle cx="300.73" cy="77.7299" r="0.729905" fill="white" fill-opacity="0.5"/>
<circle cx="894.578" cy="395.578" r="0.577606" fill="white" fill-opacity="0.5"/>
<circle cx="1168.06" cy="514.063" r="1.06322" fill="white" fill-opacity="0.3"/>
<circle cx="862.627" cy="552.627" r="0.627311" fill="white" fill-opacity="0.5"/>
<circle cx="818.617" cy="232.617" r="0.617217" fill="white" fill-opacity="0.6"/>
<circle cx="531.727" cy="222.727" r="0.726824" fill="white" fill-opacity="0.5"/>
<circle cx="404.488" cy="130.488" r="1.48771" fill="white" fill-opacity="0.6"/>
<circle cx="671.137" cy="515.137" r="1.13655" fill="white" fill-opacity="0.5"/>
<circle cx="472.185" cy="398.185" r="1.18455" fill="white" fill-opacity="0.4"/>
<circle cx="188.336" cy="479.336" r="1.33635" fill="white" fill-opacity="0.4"/>
<circle cx="465.636" cy="468.636" r="0.635722" fill="white" fill-opacity="0.3"/>
<circle cx="648.495" cy="185.495" r="1.49531" fill="white" fill-opacity="0.4"/>
<circle cx="1197.7" cy="274.699" r="0.699067" fill="white" fill-opacity="0.4"/>
<circle cx="1.47529" cy="45.4753" r="1.47529" fill="white" fill-opacity="0.4"/>
<circle cx="1198.61" cy="101.605" r="0.605475" fill="white" fill-opacity="0.6"/>
<circle cx="10.1947" cy="292.195" r="1.19469" fill="white" fill-opacity="0.6"/>
<circle cx="693.593" cy="180.593" r="0.592517" fill="white" fill-opacity="0.6"/>
<circle cx="1135.04" cy="296.035" r="1.03502" fill="white" fill-opacity="0.4"/>
<circle cx="630.193" cy="698.193" r="1.19273" fill="white" fill-opacity="0.4"/>
<circle cx="962.335" cy="180.335" r="1.33518" fill="white" fill-opacity="0.4"/>
<circle cx="320.124" cy="230.124" r="1.12416" fill="white" fill-opacity="0.3"/>
<circle cx="14.923" cy="657.923" r="0.922975" fill="white" fill-opacity="0.3"/>
<circle cx="918.191" cy="395.191" r="1.19129" fill="white" fill-opacity="0.5"/>
<circle cx="643.307" cy="520.307" r="1.3075" fill="white" fill-opacity="0.4"/>
<circle cx="1206.07" cy="289.075" r="1.07451" fill="white" fill-opacity="0.6"/>
<circle cx="547.48" cy="404.48" r="1.48028" fill="white" fill-opacity="0.5"/>
<circle cx="891.026" cy="251.026" r="1.02553" fill="white" fill-opacity="0.3"/>
<circle cx="634.823" cy="715.823" r="0.823195" fill="white" fill-opacity="0.4"/>
<circle cx="350.962" cy="489.962" r="0.961694" fill="white" fill-opacity="0.5"/>
<circle cx="518.933" cy="164.933" r="0.933095" fill="white" fill-opacity="0.4"/>
<circle cx="629.176" cy="64.1755" r="1.17552" fill="white" fill-opacity="0.5"/>
<circle cx="1084.53" cy="325.535" r="0.53491" fill="white" fill-opacity="0.6"/>
<circle cx="645.956" cy="254.956" r="0.956345" fill="white" fill-opacity="0.4"/>
<circle cx="894.818" cy="3.81758" r="0.817581" fill="white" fill-opacity="0.6"/>
<circle cx="980.985" cy="423.985" r="0.98531" fill="white" fill-opacity="0.6"/>
<circle cx="636.312" cy="109.312" r="1.31244" fill="white" fill-opacity="0.3"/>
<circle cx="814.744" cy="553.744" r="0.743752" fill="white" fill-opacity="0.6"/>
<circle cx="5.13796" cy="269.138" r="1.13796" fill="white" fill-opacity="0.6"/>
<circle cx="688.803" cy="693.803" r="0.802555" fill="white" fill-opacity="0.4"/>
<circle cx="645.746" cy="53.7458" r="0.745798" fill="white" fill-opacity="0.4"/>
<circle cx="755.503" cy="516.503" r="0.503041" fill="white" fill-opacity="0.4"/>
<circle cx="237.841" cy="345.841" r="0.840895" fill="white" fill-opacity="0.4"/>
<circle cx="208.019" cy="656.019" r="1.01876" fill="white" fill-opacity="0.5"/>
<circle cx="931.334" cy="669.334" r="1.33379" fill="white" fill-opacity="0.4"/>
<circle cx="681.789" cy="46.7885" r="0.788541" fill="white" fill-opacity="0.4"/>
<circle cx="418.131" cy="589.131" r="1.13121" fill="white" fill-opacity="0.5"/>
<circle cx="608.715" cy="367.715" r="0.715416" fill="white" fill-opacity="0.6"/>
<circle cx="811.854" cy="650.854" r="0.85377" fill="white" fill-opacity="0.5"/>
<circle cx="511.268" cy="440.268" r="1.26754" fill="white" fill-opacity="0.4"/>
<circle cx="292.195" cy="497.195" r="1.19464" fill="white" fill-opacity="0.4"/>
<circle cx="436.61" cy="497.61" r="0.609759" fill="white" fill-opacity="0.5"/>
<circle cx="780.978" cy="514.978" r="0.978352" fill="white" fill-opacity="0.3"/>
<circle cx="1180.03" cy="427.028" r="1.02834" fill="white" fill-opacity="0.5"/>
<circle cx="989.349" cy="465.349" r="1.349" fill="white" fill-opacity="0.5"/>
<circle cx="508.837" cy="274.837" r="0.836556" fill="white" fill-opacity="0.4"/>
<circle cx="1252.69" cy="596.689" r="0.688883" fill="white" fill-opacity="0.3"/>
<circle cx="914.644" cy="456.644" r="0.643591" fill="white" fill-opacity="0.6"/>
<circle cx="215.894" cy="154.894" r="0.893909" fill="white" fill-opacity="0.3"/>
<circle cx="545.017" cy="465.017" r="1.0166" fill="white" fill-opacity="0.5"/>
<circle cx="103.946" cy="318.946" r="0.946066" fill="white" fill-opacity="0.6"/>
<circle cx="699.702" cy="687.702" r="0.701788" fill="white" fill-opacity="0.4"/>
<circle cx="677.78" cy="520.78" r="0.779731" fill="white" fill-opacity="0.4"/>
<circle cx="981.656" cy="450.656" r="0.655965" fill="white" fill-opacity="0.5"/>
<circle cx="457.064" cy="710.064" r="1.06398" fill="white" fill-opacity="0.5"/>
<circle cx="39.7384" cy="129.738" r="0.738357" fill="white" fill-opacity="0.4"/>
<circle cx="868.47" cy="316.47" r="1.47043" fill="white" fill-opacity="0.4"/>
<circle cx="134.439" cy="369.439" r="1.43891" fill="white" fill-opacity="0.5"/>
<circle cx="698.11" cy="184.11" r="1.10957" fill="white" fill-opacity="0.6"/>
<circle cx="1004.8" cy="230.803" r="0.802876" fill="white" fill-opacity="0.4"/>
<circle cx="237.277" cy="86.2773" r="1.27726" fill="white" fill-opacity="0.3"/>
<circle cx="126.86" cy="279.86" r="0.860064" fill="white" fill-opacity="0.3"/>
<circle cx="56.3048" cy="344.305" r="1.30482" fill="white" fill-opacity="0.4"/>
<circle cx="292.104" cy="424.104" r="1.10418" fill="white" fill-opacity="0.6"/>
<circle cx="834.428" cy="584.428" r="1.42838" fill="white" fill-opacity="0.4"/>
<circle cx="843.172" cy="515.172" r="1.17188" fill="white" fill-opacity="0.5"/>
<circle cx="484.499" cy="693.499" r="1.49894" fill="white" fill-opacity="0.5"/>
<circle cx="455.646" cy="150.646" r="0.646279" fill="white" fill-opacity="0.3"/>
<circle cx="591.776" cy="484.776" r="0.776107" fill="white" fill-opacity="0.5"/>
<circle cx="974.783" cy="461.783" r="0.783065" fill="white" fill-opacity="0.4"/>
<circle cx="63.1554" cy="92.1554" r="1.15536" fill="white" fill-opacity="0.5"/>
<circle cx="822.327" cy="18.3272" r="1.32722" fill="white" fill-opacity="0.5"/>
<circle cx="1046.93" cy="650.925" r="0.925375" fill="white" fill-opacity="0.5"/>
<circle cx="26.718" cy="137.718" r="0.718011" fill="white" fill-opacity="0.6"/>
<circle cx="745.256" cy="209.256" r="1.25558" fill="white" fill-opacity="0.4"/>
<circle cx="23.6682" cy="344.668" r="0.668225" fill="white" fill-opacity="0.3"/>
<circle cx="563.627" cy="412.627" r="0.626512" fill="white" fill-opacity="0.6"/>
<circle cx="342.868" cy="575.868" r="0.867667" fill="white" fill-opacity="0.5"/>
<circle cx="1136.48" cy="156.479" r="1.47863" fill="white" fill-opacity="0.5"/>
<circle cx="185.572" cy="527.572" r="0.572104" fill="white" fill-opacity="0.4"/>
<circle cx="467.266" cy="403.266" r="1.26648" fill="white" fill-opacity="0.4"/>
<circle cx="1122.54" cy="471.541" r="0.541377" fill="white" fill-opacity="0.4"/>
<circle cx="809.48" cy="78.4801" r="1.48013" fill="white" fill-opacity="0.6"/>
<circle cx="128.391" cy="237.391" r="1.39147" fill="white" fill-opacity="0.6"/>
<circle cx="839.772" cy="221.772" r="0.771853" fill="white" fill-opacity="0.4"/>
<circle cx="670.277" cy="138.277" r="1.27698" fill="white" fill-opacity="0.4"/>
<circle cx="15.0728" cy="712.073" r="1.07277" fill="white" fill-opacity="0.4"/>
<circle cx="238.13" cy="435.13" r="1.12994" fill="white" fill-opacity="0.6"/>
<circle cx="809.821" cy="593.821" r="0.821443" fill="white" fill-opacity="0.4"/>
<circle cx="188.385" cy="536.385" r="1.38512" fill="white" fill-opacity="0.5"/>
<circle cx="941.395" cy="571.395" r="1.39459" fill="white" fill-opacity="0.4"/>
<circle cx="1264.03" cy="627.028" r="1.02775" fill="white" fill-opacity="0.6"/>
<circle cx="912.628" cy="358.628" r="0.628092" fill="white" fill-opacity="0.3"/>
<circle cx="285.093" cy="264.093" r="1.09256" fill="white" fill-opacity="0.4"/>
<circle cx="826.215" cy="404.215" r="1.21491" fill="white" fill-opacity="0.5"/>
<circle cx="489.66" cy="24.6603" r="0.660311" fill="white" fill-opacity="0.5"/>
<circle cx="809.22" cy="512.22" r="1.21997" fill="white" fill-opacity="0.5"/>
<circle cx="952.513" cy="105.513" r="0.512955" fill="white" fill-opacity="0.3"/>
<circle cx="716.789" cy="314.789" r="0.7895" fill="white" fill-opacity="0.4"/>
<circle cx="877.128" cy="602.128" r="1.12808" fill="white" fill-opacity="0.4"/>
<circle cx="389.201" cy="300.201" r="1.20112" fill="white" fill-opacity="0.5"/>
<circle cx="838.983" cy="194.983" r="0.983053" fill="white" fill-opacity="0.6"/>
<circle cx="272.154" cy="272.154" r="1.15402" fill="white" fill-opacity="0.5"/>
<circle cx="230.048" cy="305.048" r="1.0476" fill="white" fill-opacity="0.4"/>
<circle cx="46.2893" cy="29.2893" r="1.28931" fill="white" fill-opacity="0.4"/>
<circle cx="708.005" cy="421.005" r="1.0052" fill="white" fill-opacity="0.4"/>
<circle cx="948.496" cy="631.496" r="1.49556" fill="white" fill-opacity="0.4"/>
<circle cx="306.722" cy="715.722" r="0.722102" fill="white" fill-opacity="0.4"/>
<circle cx="716.518" cy="645.518" r="0.518178" fill="white" fill-opacity="0.6"/>
<circle cx="1019.53" cy="610.526" r="0.525527" fill="white" fill-opacity="0.5"/>
<circle cx="304.439" cy="626.439" r="1.43908" fill="white" fill-opacity="0.4"/>
<circle cx="679.338" cy="616.338" r="1.33795" fill="white" fill-opacity="0.5"/>
<circle cx="399.082" cy="137.082" r="1.08248" fill="white" fill-opacity="0.5"/>
<circle cx="944.134" cy="707.134" r="1.13361" fill="white" fill-opacity="0.5"/>
<circle cx="818.693" cy="572.693" r="0.692842" fill="white" fill-opacity="0.5"/>
<circle cx="957.355" cy="158.355" r="1.35489" fill="white" fill-opacity="0.5"/>
<circle cx="1271.56" cy="594.555" r="0.555308" fill="white" fill-opacity="0.4"/>
<circle cx="41.5663" cy="81.5663" r="0.566271" fill="white" fill-opacity="0.5"/>
<circle cx="593.401" cy="710.401" r="1.40071" fill="white" fill-opacity="0.5"/>
<circle cx="949.754" cy="553.754" r="0.753828" fill="white" fill-opacity="0.4"/>
<circle cx="1199.75" cy="601.752" r="0.751928" fill="white" fill-opacity="0.3"/>
<circle cx="348.826" cy="296.826" r="0.826139" fill="white" fill-opacity="0.3"/>
<circle cx="1135.65" cy="134.646" r="0.645955" fill="white" fill-opacity="0.5"/>
<circle cx="1217.69" cy="639.687" r="0.687238" fill="white" fill-opacity="0.4"/>
<circle cx="960.307" cy="338.307" r="1.30739" fill="white" fill-opacity="0.4"/>
<circle cx="955.585" cy="633.585" r="0.58467" fill="white" fill-opacity="0.3"/>
<circle cx="941.333" cy="512.333" r="1.33293" fill="white" fill-opacity="0.5"/>
<circle cx="562.785" cy="381.785" r="0.785278" fill="white" fill-opacity="0.4"/>
<circle cx="966.825" cy="238.825" r="0.825014" fill="white" fill-opacity="0.6"/>
<circle cx="194.146" cy="57.1463" r="1.14629" fill="white" fill-opacity="0.4"/>
<circle cx="100.976" cy="514.976" r="0.976025" fill="white" fill-opacity="0.5"/>
<circle cx="920.851" cy="323.851" r="0.850763" fill="white" fill-opacity="0.5"/>
<circle cx="913.808" cy="525.808" r="0.807776" fill="white" fill-opacity="0.6"/>
<circle cx="391.039" cy="127.039" r="1.03896" fill="white" fill-opacity="0.5"/>
<circle cx="1021.47" cy="454.468" r="1.46802" fill="white" fill-opacity="0.5"/>
<circle cx="817.119" cy="603.119" r="1.11908" fill="white" fill-opacity="0.3"/>
<circle cx="1121.52" cy="62.5158" r="0.515819" fill="white" fill-opacity="0.3"/>
<circle cx="874.919" cy="443.919" r="0.919372" fill="white" fill-opacity="0.6"/>
<circle cx="1110.04" cy="582.035" r="1.03501" fill="white" fill-opacity="0.4"/>
<circle cx="979.198" cy="528.198" r="1.19753" fill="white" fill-opacity="0.5"/>
<circle cx="177.542" cy="699.542" r="0.541788" fill="white" fill-opacity="0.3"/>
<circle cx="395.636" cy="713.636" r="0.636346" fill="white" fill-opacity="0.5"/>
<circle cx="427.47" cy="578.47" r="1.46971" fill="white" fill-opacity="0.6"/>
<circle cx="41.6642" cy="200.664" r="0.664163" fill="white" fill-opacity="0.6"/>
<circle cx="1163.24" cy="717.237" r="1.23743" fill="white" fill-opacity="0.3"/>
<circle cx="213.141" cy="397.141" r="1.14086" fill="white" fill-opacity="0.4"/>
<circle cx="912.174" cy="210.174" r="1.17402" fill="white" fill-opacity="0.6"/>
<circle cx="547.164" cy="287.164" r="1.16428" fill="white" fill-opacity="0.6"/>
<circle cx="953.305" cy="313.305" r="1.30471" fill="white" fill-opacity="0.4"/>
<circle cx="524.08" cy="244.08" r="1.07976" fill="white" fill-opacity="0.3"/>
<circle cx="589.917" cy="558.917" r="0.917307" fill="white" fill-opacity="0.3"/>
<circle cx="1189.1" cy="12.0957" r="1.0957" fill="white" fill-opacity="0.4"/>
<circle cx="64.8819" cy="542.882" r="0.881881" fill="white" fill-opacity="0.4"/>
<circle cx="1075.81" cy="187.806" r="0.805663" fill="white" fill-opacity="0.5"/>
<circle cx="593.674" cy="206.674" r="0.673872" fill="white" fill-opacity="0.5"/>
<circle cx="1255.76" cy="83.7608" r="0.76083" fill="white" fill-opacity="0.6"/>
<circle cx="599.797" cy="351.797" r="0.796698" fill="white" fill-opacity="0.4"/>
<circle cx="203.005" cy="116.005" r="1.00493" fill="white" fill-opacity="0.4"/>
<circle cx="725.093" cy="276.093" r="1.09324" fill="white" fill-opacity="0.3"/>
<circle cx="845.557" cy="336.557" r="0.557357" fill="white" fill-opacity="0.4"/>
<circle cx="637.622" cy="43.622" r="0.621954" fill="white" fill-opacity="0.3"/>
<circle cx="317.353" cy="379.353" r="1.35277" fill="white" fill-opacity="0.6"/>
<circle cx="902.047" cy="424.047" r="1.04711" fill="white" fill-opacity="0.6"/>
<circle cx="106.946" cy="376.946" r="0.946014" fill="white" fill-opacity="0.4"/>
<circle cx="985.527" cy="220.527" r="0.526556" fill="white" fill-opacity="0.6"/>
<circle cx="410.669" cy="569.669" r="0.669064" fill="white" fill-opacity="0.4"/>
<circle cx="533.878" cy="57.8778" r="0.877805" fill="white" fill-opacity="0.3"/>
<circle cx="724.225" cy="644.225" r="1.22524" fill="white" fill-opacity="0.3"/>
<circle cx="1050.13" cy="214.13" r="1.12968" fill="white" fill-opacity="0.6"/>
<circle cx="1047.52" cy="645.518" r="0.517884" fill="white" fill-opacity="0.4"/>
<circle cx="91.8608" cy="377.861" r="0.860817" fill="white" fill-opacity="0.3"/>
<circle cx="780.584" cy="1.58444" r="0.584437" fill="white" fill-opacity="0.6"/>
<circle cx="137.08" cy="140.08" r="1.07981" fill="white" fill-opacity="0.5"/>
<circle cx="771.719" cy="628.719" r="0.718591" fill="white" fill-opacity="0.6"/>
<circle cx="644.746" cy="85.7461" r="0.746128" fill="white" fill-opacity="0.4"/>
<circle cx="624.434" cy="261.434" r="1.43379" fill="white" fill-opacity="0.4"/>
<circle cx="934.913" cy="567.913" r="0.913001" fill="white" fill-opacity="0.5"/>
<circle cx="502.425" cy="282.425" r="1.42543" fill="white" fill-opacity="0.3"/>
<circle cx="681.739" cy="206.739" r="0.739307" fill="white" fill-opacity="0.5"/>
<circle cx="255.681" cy="143.681" r="0.681395" fill="white" fill-opacity="0.3"/>
<circle cx="268.695" cy="653.695" r="0.694917" fill="white" fill-opacity="0.3"/>
<circle cx="860.746" cy="59.7461" r="0.746101" fill="white" fill-opacity="0.4"/>
<circle cx="993.429" cy="100.429" r="1.42917" fill="white" fill-opacity="0.5"/>
<circle cx="535.509" cy="272.509" r="0.508798" fill="white" fill-opacity="0.3"/>
<circle cx="211.525" cy="713.525" r="0.524851" fill="white" fill-opacity="0.5"/>
<circle cx="320.066" cy="409.066" r="1.06557" fill="white" fill-opacity="0.5"/>
<circle cx="621.542" cy="95.5418" r="0.541761" fill="white" fill-opacity="0.6"/>
<circle cx="1049.72" cy="487.723" r="0.722711" fill="white" fill-opacity="0.5"/>
<circle cx="1229.2" cy="637.203" r="1.20331" fill="white" fill-opacity="0.3"/>
<circle cx="962.68" cy="77.6802" r="0.680164" fill="white" fill-opacity="0.4"/>
<circle cx="1233.95" cy="539.949" r="0.949194" fill="white" fill-opacity="0.3"/>
<circle cx="360.807" cy="343.807" r="0.807219" fill="white" fill-opacity="0.5"/>
<circle cx="1096.35" cy="531.351" r="1.35111" fill="white" fill-opacity="0.3"/>
<circle cx="1183.43" cy="672.425" r="1.42544" fill="white" fill-opacity="0.5"/>
<circle cx="819.853" cy="417.853" r="0.853136" fill="white" fill-opacity="0.6"/>
<circle cx="1029.68" cy="98.6825" r="0.682458" fill="white" fill-opacity="0.4"/>
<circle cx="709.617" cy="83.6168" r="0.61676" fill="white" fill-opacity="0.3"/>
<circle cx="526.434" cy="523.434" r="1.43418" fill="white" fill-opacity="0.5"/>
<circle cx="118.203" cy="251.203" r="1.20271" fill="white" fill-opacity="0.6"/>
<circle cx="983.046" cy="703.046" r="1.04618" fill="white" fill-opacity="0.6"/>
<circle cx="719.826" cy="369.826" r="0.825872" fill="white" fill-opacity="0.5"/>
<circle cx="238.286" cy="233.286" r="1.28588" fill="white" fill-opacity="0.5"/>
<circle cx="511.595" cy="611.595" r="0.594705" fill="white" fill-opacity="0.4"/>
<circle cx="803.554" cy="231.554" r="0.55375" fill="white" fill-opacity="0.4"/>
<circle cx="289.321" cy="665.321" r="1.32115" fill="white" fill-opacity="0.6"/>
<circle cx="947.679" cy="706.679" r="0.678797" fill="white" fill-opacity="0.4"/>
<circle cx="198.696" cy="316.696" r="0.696401" fill="white" fill-opacity="0.5"/>
<circle cx="884.662" cy="79.6618" r="0.661781" fill="white" fill-opacity="0.5"/>
<circle cx="846.603" cy="546.603" r="0.602842" fill="white" fill-opacity="0.4"/>
<circle cx="125.282" cy="105.282" r="1.28244" fill="white" fill-opacity="0.4"/>
<circle cx="863.491" cy="196.491" r="1.49102" fill="white" fill-opacity="0.3"/>
<circle cx="1104.28" cy="125.277" r="1.27724" fill="white" fill-opacity="0.3"/>
<circle cx="829.071" cy="499.071" r="1.07101" fill="white" fill-opacity="0.3"/>
<circle cx="617.953" cy="626.953" r="0.952639" fill="white" fill-opacity="0.4"/>
<circle cx="196.369" cy="375.369" r="1.36861" fill="white" fill-opacity="0.5"/>
<circle cx="1120.71" cy="594.708" r="0.708233" fill="white" fill-opacity="0.6"/>
<circle cx="352.834" cy="312.834" r="0.834244" fill="white" fill-opacity="0.4"/>
<circle cx="1153.41" cy="74.4113" r="1.41126" fill="white" fill-opacity="0.5"/>
<circle cx="759.603" cy="177.603" r="0.602545" fill="white" fill-opacity="0.4"/>
<circle cx="415.966" cy="542.966" r="0.965895" fill="white" fill-opacity="0.6"/>
<circle cx="1046.47" cy="169.468" r="1.46821" fill="white" fill-opacity="0.5"/>
<circle cx="1145.29" cy="364.286" r="1.28621" fill="white" fill-opacity="0.6"/>
<circle cx="617.064" cy="216.064" r="1.06427" fill="white" fill-opacity="0.4"/>
<circle cx="1264.35" cy="221.347" r="1.34687" fill="white" fill-opacity="0.5"/>
<circle cx="497.265" cy="57.2646" r="1.26457" fill="white" fill-opacity="0.5"/>
<circle cx="88.7501" cy="179.75" r="0.750144" fill="white" fill-opacity="0.5"/>
<circle cx="968.538" cy="716.538" r="0.53761" fill="white" fill-opacity="0.5"/>
<circle cx="492.657" cy="344.657" r="0.657011" fill="white" fill-opacity="0.4"/>
<circle cx="1255.83" cy="135.835" r="0.834836" fill="white" fill-opacity="0.4"/>
<circle cx="512.553" cy="484.553" r="0.552608" fill="white" fill-opacity="0.5"/>
<circle cx="169.497" cy="18.4972" r="1.4972" fill="white" fill-opacity="0.4"/>
<circle cx="671.463" cy="620.463" r="1.46316" fill="white" fill-opacity="0.3"/>
<circle cx="192.123" cy="496.123" r="1.12307" fill="white" fill-opacity="0.4"/>
<circle cx="823.788" cy="586.788" r="0.788149" fill="white" fill-opacity="0.3"/>
<circle cx="512.621" cy="625.621" r="0.621153" fill="white" fill-opacity="0.4"/>
<circle cx="935.804" cy="649.804" r="0.803977" fill="white" fill-opacity="0.3"/>
<circle cx="1246.67" cy="417.667" r="0.666997" fill="white" fill-opacity="0.4"/>
<circle cx="1260.91" cy="383.907" r="0.907289" fill="white" fill-opacity="0.4"/>
<circle cx="702.891" cy="637.891" r="0.891042" fill="white" fill-opacity="0.6"/>
<circle cx="325.655" cy="240.655" r="0.654597" fill="white" fill-opacity="0.4"/>
<circle cx="671.285" cy="456.285" r="1.2853" fill="white" fill-opacity="0.4"/>
<circle cx="1136.96" cy="702.964" r="0.964206" fill="white" fill-opacity="0.5"/>
<circle cx="435.678" cy="434.678" r="0.677529" fill="white" fill-opacity="0.3"/>
<circle cx="1251.52" cy="203.518" r="0.518079" fill="white" fill-opacity="0.6"/>
<circle cx="963.052" cy="604.052" r="1.0516" fill="white" fill-opacity="0.6"/>
<circle cx="65.6006" cy="30.6006" r="0.600565" fill="white" fill-opacity="0.4"/>
<circle cx="929.12" cy="18.1196" r="1.11964" fill="white" fill-opacity="0.3"/>
<circle cx="4.11599" cy="364.116" r="1.11599" fill="white" fill-opacity="0.4"/>
<circle cx="85.8881" cy="533.888" r="0.888051" fill="white" fill-opacity="0.3"/>
<circle cx="953.126" cy="398.126" r="1.12636" fill="white" fill-opacity="0.6"/>
<circle cx="564.584" cy="502.584" r="0.584403" fill="white" fill-opacity="0.3"/>
<circle cx="866.474" cy="301.474" r="1.4742" fill="white" fill-opacity="0.6"/>
<circle cx="824.242" cy="521.242" r="1.24243" fill="white" fill-opacity="0.5"/>
<circle cx="1031.81" cy="219.808" r="0.808363" fill="white" fill-opacity="0.4"/>
<circle cx="511.749" cy="426.749" r="0.748634" fill="white" fill-opacity="0.4"/>
<circle cx="824.248" cy="685.248" r="1.24776" fill="white" fill-opacity="0.3"/>
<circle cx="1117.12" cy="308.125" r="1.12461" fill="white" fill-opacity="0.4"/>
<circle cx="1125.87" cy="371.868" r="0.86794" fill="white" fill-opacity="0.3"/>
<circle cx="679.784" cy="260.784" r="0.784316" fill="white" fill-opacity="0.5"/>
<circle cx="295.533" cy="344.533" r="0.532733" fill="white" fill-opacity="0.5"/>
<circle cx="1182.67" cy="381.671" r="0.67065" fill="white" fill-opacity="0.6"/>
<circle cx="1193.36" cy="690.357" r="1.3565" fill="white" fill-opacity="0.4"/>
<circle cx="541.37" cy="545.37" r="1.37034" fill="white" fill-opacity="0.6"/>
<circle cx="1034.16" cy="79.1592" r="1.15925" fill="white" fill-opacity="0.5"/>
<circle cx="526.283" cy="530.283" r="1.28309" fill="white" fill-opacity="0.4"/>
<circle cx="720.047" cy="155.047" r="1.0473" fill="white" fill-opacity="0.6"/>
<circle cx="797.332" cy="381.332" r="1.33215" fill="white" fill-opacity="0.3"/>
<circle cx="129.685" cy="246.685" r="0.685001" fill="white" fill-opacity="0.4"/>
<circle cx="653.468" cy="454.468" r="1.46817" fill="white" fill-opacity="0.5"/>
<circle cx="1044.45" cy="80.4539" r="1.45391" fill="white" fill-opacity="0.6"/>
<circle cx="1245.86" cy="474.857" r="0.857485" fill="white" fill-opacity="0.6"/>
</g>
<defs>
<clipPath id="clip0_20_7866">
<rect width="1280" height="720" fill="white"/>
</clipPath>
</defs>
</svg>
